<?xml version="1.0" encoding="UTF-8" standalone="no"?>
<svg
   version="1.1"
   id="svg1"
   width="159.08681"
   height="150"
   viewBox="0 0 159.08681 150"
   xmlns="http://www.w3.org/2000/svg"
   xmlns:svg="http://www.w3.org/2000/svg">
  <defs
     id="defs1" />
  <g
     id="g1"
     transform="matrix(2.209539,0,0,2.209539,-30.789778,-30.795675)">
    <path
       id="path1"
       d="m 150.781,613.668 c -25.508,0 -46.269,-21.105 -46.269,-47.07 V 151.543 c 0,-25.918 20.761,-47.031 46.269,-47.031 h 447.5 c 25.52,0 46.231,21.113 46.231,47.031 v 415.055 c 0,25.965 -20.711,47.07 -46.231,47.07 h -447.5"
       style="fill:#15495d;fill-opacity:1;fill-rule:nonzero;stroke:none"
       transform="matrix(0.13333333,0,0,-0.13333333,0,95.76)" />
    <path
       id="path2"
       d="m 117.609,305.82 v 260.621 c 0,18.536 14.805,33.614 33.047,33.614 h 447.711 c 18.227,0 33.047,-15.078 33.047,-33.614 V 305.82 H 117.609"
       style="fill:#ffffff;fill-opacity:1;fill-rule:nonzero;stroke:none"
       transform="matrix(0.13333333,0,0,-0.13333333,0,95.76)" />
    <path
       id="path3"
       d="m 200.52,476.195 c 0,-4.597 -3.711,-8.289 -8.274,-8.289 -4.578,0 -8.308,3.692 -8.308,8.289 v 17.383 c 0,4.563 3.73,8.274 8.308,8.274 4.563,0 8.274,-3.711 8.274,-8.274 z m 45.585,40.207 c 0,4.559 -3.73,8.282 -8.312,8.282 -4.551,0 -8.289,-3.723 -8.289,-8.282 v -40.207 c 0,-4.597 3.738,-8.289 8.289,-8.289 4.582,0 8.312,3.692 8.312,8.289 z m 45.575,31.219 c 0,4.582 -3.719,8.274 -8.289,8.274 -4.582,0 -8.301,-3.692 -8.301,-8.274 v -87.949 c 0,-4.598 3.719,-8.289 8.301,-8.289 4.57,0 8.289,3.691 8.289,8.289 z m 45.566,-31.219 c 0,4.559 -3.719,8.282 -8.269,8.282 -4.582,0 -8.313,-3.723 -8.313,-8.282 v -40.207 c 0,-4.597 3.731,-8.289 8.313,-8.289 4.55,0 8.269,3.692 8.269,8.289 z m 45.559,-22.824 c 0,4.563 -3.711,8.274 -8.282,8.274 -4.562,0 -8.293,-3.711 -8.293,-8.274 v -17.383 c 0,-4.597 3.731,-8.289 8.293,-8.289 4.571,0 8.282,3.692 8.282,8.289 z m 45.566,22.824 c 0,4.559 -3.672,8.282 -8.262,8.282 -4.55,0 -8.261,-3.723 -8.261,-8.282 v -40.207 c 0,-4.597 3.711,-8.289 8.261,-8.289 4.59,0 8.262,3.692 8.262,8.289 z m 45.625,31.219 c 0,4.582 -3.715,8.274 -8.281,8.274 -4.551,0 -8.262,-3.692 -8.262,-8.274 v -87.949 c 0,-4.598 3.711,-8.289 8.262,-8.289 4.566,0 8.281,3.691 8.281,8.289 z m 45.582,-31.219 c 0,4.559 -3.687,8.282 -8.355,8.282 -4.571,0 -8.282,-3.723 -8.282,-8.282 v -40.207 c 0,-4.597 3.711,-8.289 8.282,-8.289 4.668,0 8.355,3.692 8.355,8.289 z m 45.508,-22.824 c 0,4.563 -3.711,8.274 -8.262,8.274 -4.566,0 -8.281,-3.711 -8.281,-8.274 v -17.383 c 0,-4.597 3.715,-8.289 8.281,-8.289 4.551,0 8.262,3.692 8.262,8.289 v 17.383"
       style="fill:#15495d;fill-opacity:1;fill-rule:nonzero;stroke:none"
       transform="matrix(0.13333333,0,0,-0.13333333,0,95.76)" />
    <path
       id="path4"
       d="m 308.441,356.176 h -16.718 v 66.242 h 16.718 z m 134.762,65.031 c -1.582,0.469 -7.402,2.383 -15.234,2.383 -20.352,0 -35.313,-14.512 -35.313,-34.289 0,-21.336 16.543,-34.305 35.313,-34.305 7.422,0 13.125,1.785 15.234,2.371 v 17.774 c -0.723,-0.391 -6.191,-3.516 -14.062,-3.516 -11.133,0 -18.301,7.844 -18.301,17.676 0,10.156 7.5,17.668 18.301,17.668 8.007,0 13.379,-3.196 14.062,-3.547 z m -174.457,0 c -1.574,0.469 -7.375,2.383 -15.226,2.383 -20.352,0 -35.274,-14.512 -35.274,-34.289 0,-21.336 16.484,-34.305 35.274,-34.305 7.453,0 13.144,1.785 15.226,2.371 v 17.774 c -0.734,-0.391 -6.183,-3.516 -14.043,-3.516 -11.133,0 -18.312,7.844 -18.312,17.676 0,10.156 7.492,17.668 18.312,17.668 7.996,0 13.367,-3.196 14.043,-3.547 z m 227.035,2.383 c -20.371,0 -34.98,-15.371 -34.98,-34.289 0,-18.946 14.609,-34.305 34.98,-34.305 20.371,0 35,15.359 35,34.305 0,18.918 -14.629,34.289 -35,34.289 z m 17.285,-34.289 c 0,-9.637 -7.382,-17.422 -17.285,-17.422 -9.922,0 -17.285,7.785 -17.285,17.422 0,9.621 7.363,17.433 17.285,17.433 9.903,0 17.285,-7.812 17.285,-17.433 z M 371.813,421.5 c -0.489,0.137 -8.137,2.109 -16.301,2.109 -15.391,0 -24.676,-8.312 -24.676,-20.714 0,-10.965 7.762,-16.426 17.07,-19.383 1.063,-0.332 2.567,-0.801 3.582,-1.133 4.141,-1.309 7.453,-3.242 7.453,-6.613 0,-3.731 -3.839,-6.18 -12.148,-6.18 -7.297,0 -14.297,2.098 -15.781,2.469 V 356.82 c 0.82,-0.195 9.129,-1.824 18.035,-1.824 12.805,0 27.414,5.594 27.414,22.246 0,8.055 -4.941,15.488 -15.781,18.926 l -4.602,1.465 c -2.754,0.879 -7.683,2.293 -7.683,6.316 0,3.196 3.66,5.442 10.351,5.442 5.789,0 12.832,-1.953 13.067,-2.032 z m 176.566,-49.621 v -1.875 h 5.332 v -13.828 h 2.207 v 13.828 h 5.312 v 1.875 z m 13.945,-15.703 h 2.246 v 12.883 h 0.059 l 4.687,-12.883 h 2.051 l 4.766,12.883 h 0.058 v -12.883 h 2.247 v 15.703 h -3.36 l -4.512,-12.852 h -0.097 l -4.688,12.852 h -3.457 v -15.703"
       style="fill:#c4122e;fill-opacity:1;fill-rule:nonzero;stroke:none"
       transform="matrix(0.13333333,0,0,-0.13333333,0,95.76)" />
    <path
       id="path5"
       d="m 259.73,191.516 15.958,-42.844 h -9.844 l -3.301,9.543 h -16.016 l -3.3,-9.543 h -9.598 l 16.492,42.844 z m 0.352,-26.282 -5.508,15.723 h -0.125 l -5.461,-15.723 z m 49.738,-5.222 c -0.422,-4.973 -3.781,-12.18 -15.187,-12.18 -9.715,0 -16.492,6.367 -16.492,16.32 0,10.02 6.777,16.375 16.492,16.375 10.988,0 14.648,-6.777 15.058,-11.64 h -8.75 c -0.605,2.765 -2.761,5.226 -6.308,5.226 -5.692,0 -7.313,-5.636 -7.313,-9.961 0,-5.636 2.391,-9.894 7.313,-9.894 3.906,0 5.879,2.871 6.484,5.754 z m 20.926,20.515 c 10.02,0 14.453,-4.922 14.453,-11.64 0,-3.895 0,-8.875 0,-13.379 0,-3.242 0.371,-5.762 0.489,-6.836 -1.075,0 -7.735,0 -8.575,0 -0.125,0.723 -0.312,2.754 -0.371,3.535 0,0 0,0 -0.117,0 -0.781,-0.957 -3.184,-4.375 -9.715,-4.375 -7.805,0 -11.34,5.039 -11.34,10.254 0,5.41 4.375,8.223 12.239,9.492 0,0 5.339,0.84 8.398,1.309 0,0.429 0,0.605 0,0.605 0,2.285 -1.086,4.981 -5.519,4.981 -4.141,0 -5.34,-2.285 -5.586,-4.317 0,0 -2.579,0 -8.809,0 0.234,4.375 2.812,10.371 14.453,10.371 z m 0.664,-17.812 c -4.98,-0.84 -6.719,-2.344 -6.719,-4.383 0,-2.336 1.555,-4.262 5.039,-4.262 4.68,0 6.477,3 6.477,7.258 0,0 0,0.781 0,2.168 -1.867,-0.301 -4.797,-0.781 -4.797,-0.781 z m 34.309,17.812 c 5.574,0 8.465,-2.812 9.304,-3.711 h 0.118 v 14.7 h 8.996 c 0,-28.203 0,-32.707 0,-32.707 0,-4.434 0.301,-9.063 0.359,-10.137 0,0 -1.074,0 -8.516,0 l -0.3,3.723 h -0.188 c -0.898,-0.899 -3.894,-4.563 -9.773,-4.563 -8.938,0 -13.977,6.836 -13.977,16.32 0,10.02 5.578,16.375 13.977,16.375 z m 2.519,-6.414 c -5.168,0 -7.316,-4.98 -7.316,-9.961 0,-5.039 2.207,-9.894 7.316,-9.894 4.559,0 7.254,4.258 7.254,9.894 0,4.325 -1.855,9.961 -7.254,9.961 z m 31.293,-12.004 c 0.078,-2.996 1.621,-7.851 7.324,-7.851 4.395,0 6.133,2.519 6.602,4.015 h 8.828 c -0.312,-1.679 -2.344,-10.441 -15.371,-10.441 -9.707,0 -16.68,6.367 -16.68,16.32 0,10.02 6.778,16.375 16.504,16.375 9.414,0 16.446,-6.113 16.446,-16.375 0,-0.656 0,-1.379 -0.059,-2.043 z m 14.239,5.528 c -0.196,2.871 -2.403,6.476 -7.032,6.476 -4.375,0 -6.894,-3.234 -7.011,-6.476 z m 55.312,-0.606 c 0,3.723 -1.68,6.602 -5.469,6.602 -3.3,0 -5.449,-2.285 -5.449,-6.602 v -18.359 h -9.004 c 0,13.203 0,18.359 0,18.359 0,3.723 -1.68,6.602 -5.469,6.602 -3.3,0 -5.449,-2.285 -5.449,-6.602 v -18.359 h -9.004 c 0,20.527 0,23.223 0,23.223 0,2.636 -0.312,7.324 -0.312,7.793 0,0 0.664,0 8.476,0 l 0.235,-3.653 h 0.176 c 0.722,0.84 3.789,4.492 9.238,4.492 6.777,0 9.179,-4.375 9.668,-5.097 h 0.176 c 0.488,0.781 3.847,5.097 9.726,5.097 7.969,0 11.445,-5.039 11.445,-12.422 0,0 0,-7.792 0,-19.433 h -8.984 c 0,13.203 0,18.359 0,18.359 z m 34.609,-18.535 c -1.738,-4.629 -3.418,-12 -11.953,-12 -1.367,0 -2.695,0.117 -3.711,0.176 v 7.019 c 0.176,-0.058 0.899,-0.175 1.68,-0.175 3.242,0 4.609,1.972 4.609,3.957 0,1.621 -0.898,3.543 -1.484,5.105 0,0 -3.184,8.399 -10.508,27.11 h 9.961 l 6.953,-20.821 h 0.313 l 6.66,20.821 h 9.18 c -10.02,-26.512 -11.7,-31.192 -11.7,-31.192 z M 212.91,261.613 230.559,233.047 h 0.117 v 28.566 h 8.816 V 218.77 h -9.414 l -17.82,28.683 h -0.129 V 218.77 h -8.809 v 42.843 z m 41.934,-29.406 c 0.058,-2.996 1.621,-7.852 7.324,-7.852 4.375,0 6.113,2.52 6.602,4.016 h 8.82 c -0.305,-1.68 -2.344,-10.441 -15.363,-10.441 -9.727,0 -16.68,6.367 -16.68,16.32 0,10.02 6.777,16.375 16.504,16.375 9.414,0 16.437,-6.113 16.437,-16.375 0,-0.656 0,-1.379 -0.058,-2.043 z m 14.219,5.527 c -0.176,2.871 -2.403,6.477 -7.012,6.477 -4.383,0 -6.903,-3.234 -7.031,-6.477 z m 32.089,-13.203 c 0,-0.418 0,-5.644 0,-6.308 -0.175,-0.059 -2.226,-0.293 -4.5,-0.293 -7.433,0 -10.8,4.562 -10.8,9.726 0,0.469 0,15 0,15.957 h -4.914 v 6.172 h 4.914 v 8.528 h 9.003 v -8.528 h 6.122 v -6.172 h -6.122 c 0,-0.781 0,-14.765 0,-15 0,-3.008 1.739,-4.258 4.071,-4.258 0.898,0 1.992,0.176 2.226,0.176 z m 14.512,25.254 5.461,-20.879 h 0.242 l 5.098,20.879 h 10.195 l 5.227,-20.879 h 0.242 l 5.637,20.879 h 8.464 l -9.96,-31.015 h -9.61 l -5.273,20.46 h -0.176 l -5.164,-20.46 H 315.84 l -9.832,31.015 z m 59.512,0.84 c 9.414,0 16.445,-6.113 16.445,-16.375 0,-10.02 -6.844,-16.32 -16.445,-16.32 -9.727,0 -16.504,6.367 -16.504,16.32 0,10.02 6.777,16.375 16.504,16.375 z m -7.324,-16.375 c 0,-5.637 2.519,-9.895 7.324,-9.895 5.097,0 7.265,4.856 7.265,9.895 0,4.98 -2.226,9.961 -7.265,9.961 -5.645,0 -7.324,-5.637 -7.324,-9.961 z m 38.457,11.395 c 0.488,0.722 3.125,4.98 9.062,4.98 1.262,0 2.578,-0.234 2.754,-0.293 0,-0.84 0,-7.383 0,-7.988 -0.176,0 -2.332,0.246 -3.77,0.246 -4.921,0 -7.683,-2.883 -7.683,-8.82 0,0 0,-3.243 0,-15 h -8.996 c 0,18.418 0,21.601 0,21.601 0,4.922 -0.242,8.762 -0.313,9.414 0,0 0.43,0 8.469,0 l 0.301,-4.14 c 0.058,0 0.176,0 0.176,0 z m 17.57,-26.875 v 42.843 h 8.992 v -23.281 l 11.113,11.453 h 10.618 l -12.481,-12.656 13.856,-18.359 h -10.555 l -12.551,16.984 V 218.77 Z m 46.25,35.156 h -8.996 v 7.687 h 8.996 z m -8.996,-35.156 v 31.015 h 8.996 V 218.77 Z m 25.84,0 h -8.993 c 0,20.996 0,23.222 0,23.222 0,2.219 -0.246,7.141 -0.304,7.793 0,0 0.664,0 8.703,0 l 0.301,-3.418 h 0.234 c 0.723,0.899 3.418,4.258 8.945,4.258 8.039,0 11.641,-5.039 11.641,-12.422 0,0 0,-7.793 0,-19.433 h -8.945 c 0,13.32 0,18.476 0,18.476 0,3.731 -1.914,6.484 -5.879,6.484 -3.418,0 -5.703,-2.46 -5.703,-6.718 z m 25.976,16.32 c 0,8.816 5.215,15.535 14.043,15.535 6.113,0 8.996,-3.418 9.715,-4.258 h 0.188 l 0.234,3.418 c 6.894,0 6.894,0 8.574,0 -0.058,-0.957 -0.351,-6.472 -0.351,-10.078 0,-6.355 0,-13.73 0,-18.184 0,-8.093 -4.141,-14.57 -16.082,-14.57 -9.961,0 -13.743,5.098 -14.106,9.902 2.649,0 5.949,0 8.469,0 0.234,-1.746 1.437,-4.199 6.172,-4.199 4.629,0 6.543,2.813 6.543,6.719 0,0 0,2.219 0,3.898 h -0.235 c -0.84,-0.839 -3.601,-3.664 -9.121,-3.664 -7.929,0 -14.043,5.938 -14.043,15.481 z m 23.633,0 c 0,4.676 -2.519,9.121 -7.312,9.121 -4.985,0 -7.317,-4.738 -7.317,-9.121 0,-4.738 2.637,-9.055 7.317,-9.055 4.976,0 7.312,4.738 7.312,9.055"
       style="fill:#ffffff;fill-opacity:1;fill-rule:nonzero;stroke:none"
       transform="matrix(0.13333333,0,0,-0.13333333,0,95.76)" />
  </g>
</svg>
