<?xml version="1.0" encoding="UTF-8" standalone="no"?>
<svg
   width="399.00937"
   height="150"
   viewBox="0 0 399.00937 150"
   fill="none"
   version="1.1"
   id="svg6"
   xmlns="http://www.w3.org/2000/svg"
   xmlns:svg="http://www.w3.org/2000/svg">
  <defs
     id="defs6" />
  <g
     id="g6"
     transform="scale(1.875)">
    <path
       d="M 33.0587,19.088 16.528,9.544 0,19.088 V 9.544 L 16.5307,0 33.0613,9.544 v 9.544 z"
       fill="#a435f0"
       id="path1" />
    <path
       d="m 0,27.1013 h 8.65866 v 21.0373 c 0,5.4374 4.05864,8.0854 7.87204,8.0854 3.8426,0 7.872,-2.72 7.872,-8.1574 V 27.1013 h 8.6586 V 48.64 c 0,5.008 -1.5733,8.872 -4.7226,11.52 -3.1494,2.648 -7.0854,3.936 -11.88,3.936 C 11.664,64.096 7.728,62.808 4.65066,60.16 1.57333,57.512 0,53.792 0,48.8533 Z"
       fill="#ffffff"
       id="path2" />
    <path
       d="m 107.92,53.2479 c -2.621,2.3334 -5.608,3.4774 -9.0134,3.4774 -6.208,0 -10.3759,-3.5387 -10.8453,-9.0187 H 116.04 c 0,0 0.184,-1.7706 0.184,-3.432 0,-5.152 -1.645,-9.4453 -5.008,-12.952 -3.291,-3.5066 -7.584,-5.224 -12.808,-5.224 -5.5094,0 -10.0187,1.7174 -13.5973,5.224 -3.5067,3.5067 -5.2961,8.0854 -5.2961,13.8107 v 0.2853 c 0,5.6534 1.7894,10.16 5.2961,13.5254 3.5066,3.3626 8.1573,5.0799 13.8106,5.0799 6.5737,0 11.8057,-2.592 15.7307,-7.064 z M 91.464,35.688 c 1.9306,-1.504 4.2933,-2.2907 6.9413,-2.2907 2.5037,0 4.5787,0.7867 6.3677,2.3627 1.71,1.4346 2.632,3.1973 2.712,5.224 H 88.28 c 0.2773,-2.0934 1.336,-3.8587 3.184,-5.296 z"
       fill="#ffffff"
       id="path3" />
    <path
       d="M 195.085,68.8853 C 191.568,77.1787 187.893,80 182.259,80 c -0.966,0 -3.904,0 -3.904,0 v -7.6747 c 0,0 1.218,0 3.157,0 1.939,0 3.741,-0.728 5.459,-4.6933 1.717,-3.9653 1.717,-3.9653 1.717,-3.9653 L 173.875,27.1013 h 8.802 l 10.52,26.3334 10.806,-26.3334 h 8.802 c -0.002,0 -14.101,33.248 -17.72,41.784 z"
       fill="#ffffff"
       id="path4" />
    <path
       d="M 66.7708,13.2906 V 30.368 c -2.8374,-2.544 -7.2507,-4.056 -11.5201,-4.056 -5.08,0 -9.3733,1.7893 -12.8799,5.4373 -3.4347,3.5787 -5.152,8.0133 -5.152,13.3813 0,5.368 1.7173,9.8027 5.152,13.4534 3.5066,3.5787 7.7999,5.368 12.8799,5.368 5.8614,0 9.5627,-2.3013 11.5201,-4.1067 v 3.32 h 8.5866 V 13.2906 Z m -2.576,39.7147 c -2.0747,2.0747 -4.7227,3.1493 -7.8,3.1493 -3.0774,0 -5.5814,-1.0746 -7.6561,-3.1493 -2.0026,-2.0747 -3.0053,-4.7226 -3.0053,-7.872 0,-3.1493 1.0027,-5.7973 3.0053,-7.872 2.0747,-2.0746 4.5787,-3.1493 7.6561,-3.1493 3.0773,0 5.7253,1.0747 7.8,3.1493 2.1466,2.0747 3.2213,4.7227 3.2213,7.872 0,3.1494 -1.0747,5.7973 -3.2213,7.872 z"
       fill="#ffffff"
       id="path5" />
    <path
       d="m 160.525,26.3867 c -6.522,0 -9.914,2.7066 -12.237,5.312 -0.928,-1.7707 -3.544,-5.312 -9.659,-5.312 -5.165,0 -8.213,2.6106 -9.73,4.472 V 27.104 h -8.515 v 36.064 h 8.515 V 42.416 c 0,-4.8667 3.005,-8.3733 7.013,-8.3733 4.08,0 6.44,3.0773 6.44,8.0133 v 21.1093 h 8.515 v -20.752 c 0,-4.9386 2.933,-8.3733 7.154,-8.3733 4.08,0 6.44,3.0773 6.44,8.0133 v 21.1093 h 8.587 V 40.8373 c 0,-9.4026 -5.053,-14.4506 -12.523,-14.4506 z"
       fill="#ffffff"
       id="path6" />
  </g>
</svg>
